<svg xmlns="http://www.w3.org/2000/svg" width="28.673" height="22.935" viewBox="0 0 28.673 22.935">
  <g id="cash-outline" transform="translate(28.673 22.935) rotate(180)">
    <path id="Path_13" data-name="Path 13" d="M3.4,4.875H28.269a1.906,1.906,0,0,1,1.9,1.9V20.168a1.906,1.906,0,0,1-1.9,1.9H3.4a1.906,1.906,0,0,1-1.9-1.9V6.779A1.906,1.906,0,0,1,3.4,4.875Zm24.865,15.3a.009.009,0,0,0,.009-.009V6.779a.009.009,0,0,0-.009-.009H3.4a.009.009,0,0,0-.009.009V20.168a.009.009,0,0,0,.009.009Z" transform="translate(-1.5 -4.875)" fill="#3633a8"/>
    <path id="Path_14" data-name="Path 14" d="M27.65,28.145H4.7a.947.947,0,0,1,0-1.895H27.65a.947.947,0,0,1,0,1.895Z" transform="translate(-1.837 -8.079)" fill="#3633a8"/>
    <path id="Path_15" data-name="Path 15" d="M26.074,31.52H6.947a.947.947,0,0,1,0-1.895H26.074a.947.947,0,0,1,0,1.895Z" transform="translate(-2.175 -8.585)" fill="#3633a8"/>
    <path id="Path_16" data-name="Path 16" d="M17.354,8.25a5.729,5.729,0,1,1-5.729,5.729A5.736,5.736,0,0,1,17.354,8.25Zm0,9.564a3.834,3.834,0,1,0-3.834-3.834A3.839,3.839,0,0,0,17.354,17.814Z" transform="translate(-3.018 -5.381)" fill="#3633a8"/>
    <path id="Path_17" data-name="Path 17" d="M33.1,11.552a5.736,5.736,0,0,1-5.729-5.729.947.947,0,1,1,1.895,0A3.839,3.839,0,0,0,33.1,9.657a.947.947,0,1,1,0,1.895Z" transform="translate(-5.379 -4.875)" fill="#3633a8"/>
    <path id="Path_18" data-name="Path 18" d="M2.447,11.552a.947.947,0,1,1,0-1.895A3.839,3.839,0,0,0,6.282,5.822a.947.947,0,1,1,1.895,0A5.736,5.736,0,0,1,2.447,11.552Z" transform="translate(-1.5 -4.875)" fill="#3633a8"/>
    <path id="Path_19" data-name="Path 19" d="M28.322,23.927a.947.947,0,0,1-.947-.947A5.736,5.736,0,0,1,33.1,17.25a.947.947,0,1,1,0,1.895,3.839,3.839,0,0,0-3.834,3.834A.947.947,0,0,1,28.322,23.927Z" transform="translate(-5.379 -6.73)" fill="#3633a8"/>
    <path id="Path_20" data-name="Path 20" d="M7.229,23.927a.947.947,0,0,1-.947-.947,3.839,3.839,0,0,0-3.834-3.834.947.947,0,1,1,0-1.895,5.736,5.736,0,0,1,5.729,5.729A.947.947,0,0,1,7.229,23.927Z" transform="translate(-1.5 -6.73)" fill="#3633a8"/>
  </g>
</svg>
