<svg xmlns="http://www.w3.org/2000/svg" width="28.673" height="24.85" viewBox="0 0 28.673 24.85">
  <path id="contact" d="M28.364,3.375H2.559A1.435,1.435,0,0,0,1.125,4.809V26.791a1.435,1.435,0,0,0,1.434,1.434H7.816V24.711a1.2,1.2,0,0,1,.614-1.044l5.494-3.054-1.808-4.52V12.455a3.345,3.345,0,1,1,6.691,0v3.639L17,20.612l5.494,3.054a1.2,1.2,0,0,1,.614,1.044v3.514h5.257A1.435,1.435,0,0,0,29.8,26.79V4.809a1.435,1.435,0,0,0-1.434-1.434Zm-.478,22.937H25.018v-1.6A3.107,3.107,0,0,0,23.422,22L19.4,19.76l1.319-3.3V12.455a5.257,5.257,0,1,0-10.513,0v4.007l1.319,3.3L7.5,22A3.108,3.108,0,0,0,5.9,24.71v1.6H3.036V5.286H27.885Z" transform="translate(-1.125 -3.375)" fill="#3633a8"/>
</svg>
