<svg xmlns="http://www.w3.org/2000/svg" width="22.979" height="22.979" viewBox="0 0 22.979 22.979">
  <path id="bxs-dashboard" d="M5.693,16.433h7.16a1.193,1.193,0,0,0,1.193-1.193V5.693A1.193,1.193,0,0,0,12.853,4.5H5.693A1.193,1.193,0,0,0,4.5,5.693v9.546A1.193,1.193,0,0,0,5.693,16.433ZM4.5,24.785a1.193,1.193,0,0,0,1.193,1.193h7.16a1.193,1.193,0,0,0,1.193-1.193V20.012a1.193,1.193,0,0,0-1.193-1.193H5.693A1.193,1.193,0,0,0,4.5,20.012Zm11.933,0a1.193,1.193,0,0,0,1.193,1.193h7.16a1.193,1.193,0,0,0,1.193-1.193V16.433a1.193,1.193,0,0,0-1.193-1.193h-7.16a1.193,1.193,0,0,0-1.193,1.193Zm1.193-11.933h7.16a1.193,1.193,0,0,0,1.193-1.193V5.693A1.193,1.193,0,0,0,24.785,4.5h-7.16a1.193,1.193,0,0,0-1.193,1.193V11.66A1.193,1.193,0,0,0,17.626,12.853Z" transform="translate(-3.75 -3.75)" fill="none" stroke="#afafaf" stroke-width="1.5"/>
</svg>
