<svg xmlns="http://www.w3.org/2000/svg" xmlns:xlink="http://www.w3.org/1999/xlink" width="74" height="74" viewBox="0 0 74 74">
  <defs>
    <linearGradient id="linear-gradient" x1="0.121" x2="0.863" y2="0.908" gradientUnits="objectBoundingBox">
      <stop offset="0" stop-color="#9974ef"/>
      <stop offset="1" stop-color="#3633a8"/>
    </linearGradient>
    <filter id="Rectangle_60" x="0" y="0" width="74" height="74" filterUnits="userSpaceOnUse">
      <feOffset dx="-3" dy="4" input="SourceAlpha"/>
      <feGaussianBlur stdDeviation="3" result="blur"/>
      <feFlood flood-opacity="0.161"/>
      <feComposite operator="in" in2="blur"/>
      <feComposite in="SourceGraphic"/>
    </filter>
  </defs>
  <g id="Group_19" data-name="Group 19" transform="translate(-339.495 -767.495)">
    <g id="Group_8" data-name="Group 8" transform="translate(351 772)">
      <g transform="matrix(1, 0, 0, 1, -11.5, -4.5)" filter="url(#Rectangle_60)">
        <rect id="Rectangle_60-2" data-name="Rectangle 60" width="56" height="56" rx="28" transform="translate(12 5)" fill="url(#linear-gradient)"/>
      </g>
    </g>
    <g id="shortcut" transform="translate(365.603 786.603)">
      <path id="Path_999" data-name="Path 999" d="M20.271,11.426a1.044,1.044,0,0,0-1.476,0l-7.378,7.38a1.044,1.044,0,1,0,1.474,1.476l7.38-7.378a1.044,1.044,0,0,0,0-1.477Z" transform="translate(-2.003 -2.014)" fill="#fff"/>
      <path id="Path_1000" data-name="Path 1000" d="M4.5,7.631A3.131,3.131,0,0,1,7.631,4.5H20.154a3.131,3.131,0,0,1,3.131,3.131V20.154a3.131,3.131,0,0,1-3.131,3.131H7.631A3.131,3.131,0,0,1,4.5,20.154ZM7.631,6.587H20.154A1.044,1.044,0,0,1,21.2,7.631V20.154A1.044,1.044,0,0,1,20.154,21.2H7.631a1.044,1.044,0,0,1-1.044-1.044V7.631A1.044,1.044,0,0,1,7.631,6.587Z" transform="translate(0 0)" fill="#fff" fill-rule="evenodd"/>
    </g>
  </g>
</svg>
