<svg xmlns="http://www.w3.org/2000/svg" width="21.036" height="19" viewBox="0 0 21.036 19">
  <g id="export-solid" transform="translate(0)">
    <path id="Path_34" data-name="Path 34" d="M12.821,16.214a.679.679,0,0,1,.679-.679h5.429V5.357A1.357,1.357,0,0,0,17.571,4H8.662L4,8.655V21.643A1.357,1.357,0,0,0,5.357,23H17.571a1.357,1.357,0,0,0,1.357-1.357v-4.75H13.5A.679.679,0,0,1,12.821,16.214ZM9.429,9.429H5.357V9.211L9.218,5.357h.21Z" transform="translate(-4 -4)" fill="#3633a8"/>
    <path id="Path_35" data-name="Path 35" d="M28.253,16.273a.679.679,0,0,0-.957.957l2.205,2.2H26v1.357h3.522L27.3,23.011a.679.679,0,1,0,.957.957l3.854-3.861Z" transform="translate(-11.072 -7.892)" fill="#3633a8"/>
  </g>
</svg>
