<svg xmlns="http://www.w3.org/2000/svg" width="22.748" height="14.875" viewBox="0 0 22.748 14.875">
  <g id="filter" transform="translate(-1.166 -8.438)">
    <path id="Path_37" data-name="Path 37" d="M22.8,11.063H2.279A1.241,1.241,0,0,1,1.166,9.75,1.241,1.241,0,0,1,2.279,8.438H22.8A1.241,1.241,0,0,1,23.914,9.75,1.241,1.241,0,0,1,22.8,11.063Z" fill="#3633a8"/>
    <path id="Path_38" data-name="Path 38" d="M19.761,18.938H7.819a1.213,1.213,0,0,1-1.028-1.312,1.213,1.213,0,0,1,1.028-1.312H19.761a1.213,1.213,0,0,1,1.028,1.312A1.213,1.213,0,0,1,19.761,18.938Z" transform="translate(-1.25 -1.75)" fill="#3633a8"/>
    <path id="Path_39" data-name="Path 39" d="M19.2,26.813H14.822a1.313,1.313,0,0,1,0-2.625H19.2a1.313,1.313,0,0,1,0,2.625Z" transform="translate(-4.47 -3.5)" fill="#3633a8"/>
  </g>
</svg>
