<svg xmlns="http://www.w3.org/2000/svg" width="29.079" height="29.062" viewBox="0 0 29.079 29.062">
  <g id="Loan-Icon-09mvkd2" transform="translate(0)">
    <path id="Union_1" data-name="Union 1" d="M11.2,27.717c-2.478-.668-4.488-1.206-4.98-1.332-.012.027-.027.06-.04.1a2.021,2.021,0,0,1-.9,1.005c-.295.144-.492.158-2.118.158-1.916,0-2.144-.017-2.659-.506l-.052-.049C0,26.665,0,26.665,0,23.149v-.521c0-3.659.006-3.813.158-4.108a1.833,1.833,0,0,1,.911-.852,6.585,6.585,0,0,1,2.1-.129c1.628,0,1.825.015,2.11.157a2.257,2.257,0,0,1,.838.81l.026.038.719-.317a5.99,5.99,0,0,1,2.5-.666c.155-.008.281-.012.4-.012a5.478,5.478,0,0,1,1.15.13c.788.147,2.141.362,2.74.443-.03-.068-.067-.147-.108-.234A8.182,8.182,0,0,1,13,12.641,13.551,13.551,0,0,1,15.422,7.3l.36-.478-.09-.1a1.645,1.645,0,0,1-.5-1.229,1.667,1.667,0,0,1,1.429-1.7,1,1,0,0,0,.1-.016c-.074-.252-.218-.711-.275-.892-.374-1.178-.418-1.558-.01-1.984A6.753,6.753,0,0,1,19.26.04C19.523,0,20.114,0,20.443,0c.665,0,1.537.022,1.882.069a9.4,9.4,0,0,1,2.465.67,1.074,1.074,0,0,1,.483,1.053c-.026.167-.187.723-.336,1.187-.107.338-.194.627-.24.792a1.784,1.784,0,0,1,1.379,1.008,1.76,1.76,0,0,1-.393,1.985l-.049.039c.055.079.145.2.267.352a13.829,13.829,0,0,1,2.052,3.785A9.17,9.17,0,0,1,28.04,17.5c-.054.123-.091.211-.117.272.037.017.08.038.131.058a1.721,1.721,0,0,1,1.007,1.362,1.826,1.826,0,0,1-.65,1.672c-.992.819-10.372,7.824-10.676,7.972a2.556,2.556,0,0,1-.932.228c-.047,0-.093,0-.141,0C16.2,29.062,15.622,28.91,11.2,27.717Zm-2.625-8.47c-.345.108-1.85.756-2.185.925-.075.551-.1,3.934-.029,4.575.28.084,1.317.376,4.967,1.366,3.625.987,5.1,1.344,5.28,1.349.4,0,.487-.028,1.457-.765.385-.295,1.876-1.417,3.6-2.717l1.385-1.043c2.4-1.818,4.158-3.153,4.287-3.262a.333.333,0,0,0,.1-.349.147.147,0,0,0-.13-.1c-.191.074-1.208.611-2.6,1.393a21.643,21.643,0,0,0-2.774,1.7,1.689,1.689,0,0,1-1.088.57,16.118,16.118,0,0,0-1.787.925c-1.471.83-1.686.929-2.1.96-.057,0-.118.009-.18.009a1.573,1.573,0,0,1-.553-.086c-.159-.066-.958-.544-1.609-.951l-1.3-.811h-.662c-.982-.009-1.434-.1-1.611-.338a.9.9,0,0,1,.047-1l.195-.245,4.791-.022c3.25-.011,4.519-.022,4.694-.089a.217.217,0,0,0-.006-.293c-.217-.067-1.737-.346-5.4-.941a58.994,58.994,0,0,0-6.151-.853A1.892,1.892,0,0,0,8.576,19.247Zm-6.923-.093-.071.036-.021,3.373c-.01,2.2-.012,3.239.039,3.446a12.562,12.562,0,0,0,1.541.052,10.938,10.938,0,0,0,1.491-.041,67.855,67.855,0,0,0,0-6.86A9.829,9.829,0,0,0,3.217,19.1c-.211,0-.4,0-.561,0A3.738,3.738,0,0,0,1.653,19.155Zm14.68,3.787a.171.171,0,0,1,.019.012l.471.27.336-.174c.073-.034.152-.073.229-.112h-.47C16.7,22.938,16.5,22.939,16.333,22.942ZM17.489,7.321a3.807,3.807,0,0,0-.5.52,11.715,11.715,0,0,0-2.433,5.154,5.636,5.636,0,0,0-.146,1.778,6.627,6.627,0,0,0,.179,1.417,7.121,7.121,0,0,0,1.019,2.059l.215.237,2.554.41c2.935.461,3.333.556,3.734,1.166.04.06.075.108.1.145.247-.13.883-.48,1.794-1,1.763-.993,1.86-1.058,2.08-1.379a7,7,0,0,0,.791-1.858,8.746,8.746,0,0,0-.044-3.181,11.712,11.712,0,0,0-2.718-5.278l-.261-.273H20.764A30.593,30.593,0,0,0,17.489,7.321Zm-.651-1.942a.136.136,0,0,0-.063.074.157.157,0,0,0,.007.119c.19.051,1.177.051,3.9.051h3.883l.047-.076c.039-.058.044-.095.038-.109s-.051-.06-.164-.084-1.04-.034-2.89-.034C19.242,5.321,17.1,5.348,16.838,5.379Zm1.3-3.513a2.042,2.042,0,0,0-.313.095c.082.338.446,1.455.571,1.749.239.034,1.071.068,2.31.068s2.076-.034,2.312-.069a16.479,16.479,0,0,0,.543-1.754,10.878,10.878,0,0,0-1.733-.349,9.977,9.977,0,0,0-1.094-.061A11.118,11.118,0,0,0,18.142,1.866ZM1.9,25.235a.7.7,0,0,1,.224-.795c.268-.268.38-.268,1.008-.268s.74,0,1.007.267a.705.705,0,0,1,.224.8c-.146.348-.606.556-1.231.556S2.043,25.583,1.9,25.235Zm.22-4.494,0,0a.6.6,0,0,1-.225-.622.712.712,0,0,1,.571-.634,2.539,2.539,0,0,1,.667-.079,2.582,2.582,0,0,1,.642.071.81.81,0,0,1,.6.544.764.764,0,0,1-.234.728c-.268.268-.381.268-1.008.268C2.47,21.011,2.388,21,2.117,20.741Zm17.992-2.918a2.786,2.786,0,0,0-.651-.472,2.484,2.484,0,0,1-1.394-2.1,1.07,1.07,0,0,1,.19-.833.69.69,0,0,1,.533-.194A.824.824,0,0,1,19.6,15a1.6,1.6,0,0,0,.29.69c0-.19.007-.461,0-.823l-.019-1.1-.3-.152a2.66,2.66,0,0,1-1.294-3.552A2.852,2.852,0,0,1,19.6,8.753c.327-.147.416-.265.439-.309a.81.81,0,0,1,.292-.328,1.1,1.1,0,0,1,.387-.06,1.141,1.141,0,0,1,.355.049l.021.01a.82.82,0,0,1,.3.335,1.15,1.15,0,0,0,.475.335,2.591,2.591,0,0,1,1.5,2.172c.029.461.027.589-.243.8a.907.907,0,0,1-.556.2.658.658,0,0,1-.5-.208,1.418,1.418,0,0,1-.234-.559,1.577,1.577,0,0,0-.3-.739v1.992l.262.111a2.519,2.519,0,0,1,1.29,1.189,1.933,1.933,0,0,1,.268,1.26,1.968,1.968,0,0,1-.223,1.184,2.806,2.806,0,0,1-1.221,1.21,1.982,1.982,0,0,0-.565.41.918.918,0,0,1-.623.36A.88.88,0,0,1,20.109,17.823Zm1.413-2.828c0,.274.006.512.015.693a1.476,1.476,0,0,0,.172-.248,1.287,1.287,0,0,0,.072-.444.916.916,0,0,0-.243-.7C21.528,14.474,21.522,14.716,21.522,14.995Zm-1.77-3.267a1.094,1.094,0,0,0,.138.189c0-.182,0-.439,0-.779l-.012-.641A1.094,1.094,0,0,0,19.752,11.728Z" transform="translate(0 0)" fill="#3633a8"/>
  </g>
</svg>
