<svg xmlns="http://www.w3.org/2000/svg" width="18.62" height="20.765" viewBox="0 0 18.62 20.765">
  <path id="notification" d="M21.777,14.945l-1.934-1.934V9.718A7.211,7.211,0,0,0,13.4,2.557V1.125H11.967V2.557a7.268,7.268,0,0,0-6.444,7.16v3.294L3.589,14.945a.652.652,0,0,0-.214.5v2.148a.673.673,0,0,0,.716.716H9.1a3.58,3.58,0,0,0,7.16,0h5.012a.673.673,0,0,0,.716-.716V15.446A.652.652,0,0,0,21.777,14.945Zm-9.094,5.513a2.148,2.148,0,0,1-2.148-2.148h4.3A2.148,2.148,0,0,1,12.683,20.458Zm7.876-3.58H4.806V15.732L6.74,13.8a.652.652,0,0,0,.214-.5V9.718a5.728,5.728,0,1,1,11.457,0V13.3a.652.652,0,0,0,.214.5l1.934,1.934Z" transform="translate(-3.373 -1.125)" fill="#afafaf"/>
</svg>
