<svg id="options" xmlns="http://www.w3.org/2000/svg" width="5.139" height="19.27" viewBox="0 0 5.139 19.27">
  <path id="Path_31" data-name="Path 31" d="M16.069,6.264A2.569,2.569,0,1,0,13.5,3.694a2.569,2.569,0,0,0,2.569,2.569Zm0-3.854a1.285,1.285,0,1,1-1.285,1.285A1.285,1.285,0,0,1,16.069,2.41Z" transform="translate(-13.5 -1.125)"/>
  <path id="Path_32" data-name="Path 32" d="M16.069,25.875a2.569,2.569,0,1,0,2.569,2.569,2.569,2.569,0,0,0-2.569-2.569Zm0,3.854a1.285,1.285,0,1,1,1.285-1.285,1.285,1.285,0,0,1-1.285,1.285Z" transform="translate(-13.5 -11.744)"/>
  <path id="Path_33" data-name="Path 33" d="M16.069,13.5a2.569,2.569,0,1,0,2.569,2.569A2.569,2.569,0,0,0,16.069,13.5Zm0,3.854a1.285,1.285,0,1,1,1.285-1.285A1.285,1.285,0,0,1,16.069,17.354Z" transform="translate(-13.5 -6.434)"/>
</svg>
