<svg xmlns="http://www.w3.org/2000/svg" width="21.809" height="21.809" viewBox="0 0 21.809 21.809">
  <path id="bxs-contact" d="M23.718,3H7.362A2.181,2.181,0,0,0,5.181,5.181V8.452H3v2.181H5.181v2.181H3v2.181H5.181v2.181H3v2.181H5.181v3.271a2.181,2.181,0,0,0,2.181,2.181H23.718a1.09,1.09,0,0,0,1.09-1.09V4.09A1.09,1.09,0,0,0,23.718,3ZM14.995,6.27a3.272,3.272,0,1,1-3.271,3.271A3.283,3.283,0,0,1,14.995,6.27Zm6.543,14.177H8.452v-.818c0-2.42,2.95-4.907,6.543-4.907s6.543,2.487,6.543,4.907Z" transform="translate(-3 -3)" fill="#4e43ba"/>
</svg>
