<svg xmlns="http://www.w3.org/2000/svg" width="15.02" height="15.022" viewBox="0 0 15.02 15.022">
  <path id="call" d="M14.291,17.272a6.319,6.319,0,0,1-2.951-1.006A19.184,19.184,0,0,1,6.706,12.8a17.6,17.6,0,0,1-3.48-4.633C1.991,5.92,2.2,4.743,2.437,4.239A3.136,3.136,0,0,1,3.666,2.92a5.912,5.912,0,0,1,.96-.51l.093-.041A.9.9,0,0,1,5.455,2.3a2.154,2.154,0,0,1,.7.537A11.617,11.617,0,0,1,7.9,5.436,2.584,2.584,0,0,1,8.246,6.5a1.681,1.681,0,0,1-.427,1c-.044.06-.088.117-.13.173-.255.335-.311.432-.274.605a6.36,6.36,0,0,0,1.549,2.3,6.1,6.1,0,0,0,2.271,1.511c.18.039.279-.02.625-.284.05-.038.1-.077.154-.116a1.689,1.689,0,0,1,1.015-.454h0a2.431,2.431,0,0,1,1.068.375,12.8,12.8,0,0,1,2.587,1.736,2.163,2.163,0,0,1,.538.7.9.9,0,0,1-.067.738c-.012.028-.026.058-.041.092a5.918,5.918,0,0,1-.513.959,3.134,3.134,0,0,1-1.321,1.227,2.26,2.26,0,0,1-.991.217Z" transform="translate(-2.257 -2.25)" fill="#7e7e7e"/>
</svg>
