<svg id="plus" xmlns="http://www.w3.org/2000/svg" width="17.705" height="17.705" viewBox="0 0 17.705 17.705">
  <path id="Path_48" data-name="Path 48" d="M16.727,7.875a.984.984,0,0,1,.984.984v7.869a.984.984,0,0,1-.984.984H8.859a.984.984,0,1,1,0-1.967h6.885V8.859A.984.984,0,0,1,16.727,7.875Z" transform="translate(-7.875 -7.875)" fill="#3633a8" fill-rule="evenodd"/>
  <path id="Path_49" data-name="Path 49" d="M16.875,17.859a.984.984,0,0,1,.984-.984h7.869a.984.984,0,1,1,0,1.967H18.842v6.885a.984.984,0,1,1-1.967,0Z" transform="translate(-9.006 -9.006)" fill="#3633a8" fill-rule="evenodd"/>
</svg>
