<svg id="plus-circle-line" xmlns="http://www.w3.org/2000/svg" width="23.002" height="23.002" viewBox="0 0 23.002 23.002">
  <path id="Path_7" data-name="Path 7" d="M21.294,14.7H16.14V9.549a.719.719,0,1,0-1.438,0V14.7H9.549a.719.719,0,1,0,0,1.438H14.7v5.154a.719.719,0,1,0,1.438,0V16.14h5.154a.719.719,0,1,0,0-1.438Z" transform="translate(-3.921 -3.921)" fill="#3633a8"/>
  <path id="Path_8" data-name="Path 8" d="M13.5,2A11.5,11.5,0,1,0,25,13.5,11.5,11.5,0,0,0,13.5,2Zm0,21.564A10.063,10.063,0,1,1,23.564,13.5,10.063,10.063,0,0,1,13.5,23.564Z" transform="translate(-2 -2)" fill="#3633a8"/>
</svg>
