<svg xmlns="http://www.w3.org/2000/svg" width="21.313" height="21.313" viewBox="0 0 21.313 21.313">
  <g id="reload-circle-outline" transform="translate(1.125 1.125)">
    <path id="Path_989" data-name="Path 989" d="M23.562,14.031a9.531,9.531,0,1,0-9.531,9.531A9.534,9.534,0,0,0,23.562,14.031Z" transform="translate(-4.5 -4.5)" fill="none" stroke="#046dff" stroke-width="2.25"/>
    <path id="Path_990" data-name="Path 990" d="M20.1,12.977l-.564-.657a5.131,5.131,0,1,0,1.128,5.254" transform="translate(-6.32 -6.332)" fill="none" stroke="#046dff" stroke-linecap="round" stroke-width="2.25"/>
    <path id="Path_991" data-name="Path 991" d="M24.42,11.39a.419.419,0,0,0-.3.126l-2.955,2.955a.427.427,0,0,0,.3.73h2.955a.428.428,0,0,0,.428-.428V11.818a.427.427,0,0,0-.431-.429Z" transform="translate(-9.363 -6.525)" fill="#046dff"/>
  </g>
</svg>
