<svg xmlns="http://www.w3.org/2000/svg" xmlns:xlink="http://www.w3.org/1999/xlink" width="75" height="75" viewBox="0 0 75 75">
  <defs>
    <linearGradient id="linear-gradient" y1="0.125" x2="0.91" y2="1" gradientUnits="objectBoundingBox">
      <stop offset="0" stop-color="#19c547"/>
      <stop offset="1" stop-color="#337a05"/>
    </linearGradient>
    <filter id="Rectangle_60" x="0" y="0" width="75" height="75" filterUnits="userSpaceOnUse">
      <feOffset dx="-3" dy="4" input="SourceAlpha"/>
      <feGaussianBlur stdDeviation="3" result="blur"/>
      <feFlood flood-opacity="0.161"/>
      <feComposite operator="in" in2="blur"/>
      <feComposite in="SourceGraphic"/>
    </filter>
  </defs>
  <g id="Group_9" data-name="Group 9" transform="translate(-338 -766)">
    <g id="Group_8" data-name="Group 8" transform="translate(-3.303 -3.303)">
      <g transform="matrix(1, 0, 0, 1, 341.3, 769.3)" filter="url(#Rectangle_60)">
        <rect id="Rectangle_60-2" data-name="Rectangle 60" width="57" height="57" rx="28.5" transform="translate(12 5)" fill="url(#linear-gradient)"/>
      </g>
    </g>
    <g id="check" transform="translate(359.531 781.037)">
      <path id="Path_50" data-name="Path 50" d="M25.677,11.214a1.8,1.8,0,1,1,2.565,2.515L18.683,25.677a1.8,1.8,0,0,1-2.586.048L9.764,19.389A1.8,1.8,0,1,1,12.3,16.851l5.014,5.011,8.315-10.594a.565.565,0,0,1,.048-.052Z" transform="translate(0)" fill="#fff" fill-rule="evenodd"/>
    </g>
  </g>
</svg>
