<svg id="settings-line" xmlns="http://www.w3.org/2000/svg" width="22.239" height="22.239" viewBox="0 0 22.239 22.239">
  <path id="Path_35" data-name="Path 35" d="M15.965,11a4.865,4.865,0,1,0,4.865,4.865A4.835,4.835,0,0,0,15.965,11Zm0,8.34a3.475,3.475,0,1,1,3.475-3.475A3.441,3.441,0,0,1,15.965,19.34Z" transform="translate(-4.776 -4.745)" fill="#afafaf"/>
  <path id="Path_36" data-name="Path 36" d="M23.405,10.826,21.459,10.2l-.417-1.042.973-1.807a1.169,1.169,0,0,0-.208-1.32L20.139,4.363a1.169,1.169,0,0,0-1.32-.208l-1.807.973L15.969,4.71l-.625-1.946A1.13,1.13,0,0,0,14.3,2H11.938a.974.974,0,0,0-.973.834L10.34,4.78A3.071,3.071,0,0,0,9.228,5.2L7.421,4.224a1.169,1.169,0,0,0-1.32.208L4.432,6.1a1.169,1.169,0,0,0-.208,1.32l.9,1.737c-.139.347-.278.764-.417,1.112L2.764,10.9A1.13,1.13,0,0,0,2,11.938V14.3a1.107,1.107,0,0,0,.834,1.042l1.946.625L5.2,17.012l-.973,1.807a1.169,1.169,0,0,0,.208,1.32L6.1,21.807a1.169,1.169,0,0,0,1.32.208l1.807-.973,1.042.417.625,2.015a1.13,1.13,0,0,0,1.042.764H14.3a1.13,1.13,0,0,0,1.042-.764l.625-2.015,1.042-.417,1.807.973a1.169,1.169,0,0,0,1.32-.208l1.668-1.668a1.169,1.169,0,0,0,.208-1.32l-.973-1.807.417-1.042,2.015-.625a1.13,1.13,0,0,0,.764-1.042V11.938a1.19,1.19,0,0,0-.834-1.112Zm-.556,3.266-2.5.764-.069.347-.625,1.459-.208.347L20.695,19.3l-1.39,1.39-2.293-1.251-.347.208a6.6,6.6,0,0,1-1.459.625l-.347.069-.764,2.5H12.147l-.764-2.5-.347-.069-1.459-.625-.347-.208L6.934,20.695,5.544,19.3,6.8,17.012l-.208-.347A6.6,6.6,0,0,1,5.961,15.2l-.069-.347-2.5-.764V12.147l2.363-.695.139-.347a5.9,5.9,0,0,1,.625-1.529l.208-.347L5.544,6.934l1.39-1.39L9.158,6.8l.347-.208a5.9,5.9,0,0,1,1.529-.625l.347-.139.764-2.432h1.946l.764,2.432.347.139a6.6,6.6,0,0,1,1.459.625l.347.208L19.3,5.544l1.39,1.39L19.444,9.228l.208.347a6.6,6.6,0,0,1,.625,1.459l.069.347,2.5.764Z" transform="translate(-2 -2)" fill="#afafaf"/>
</svg>
